Coordinates
version=1
nRows=8
nColumns=33
inDegrees=yes

Units are S.I. units (second, meters, Newtons, ...)
Angles are in degrees.

endheader
time	ground_thorax_rot_x	ground_thorax_rot_y	ground_thorax_rot_z	ground_thorax_tx	ground_thorax_ty	ground_thorax_tz	clav_prot_r	clav_elev_r	scapula_abduction_r	scapula_elevation_r	scapula_upward_rot_r	scapula_winging_r	shoulder_elv_r	plane_of_elev_r	axial_rot_r	elbow_flexion_r	pro_sup_r	wrist_flex_r	wrist_dev_r	clav_prot_l	clav_elev_l	scapula_abduction_l	scapula_elevation_l	scapula_upward_rot_l	scapula_winging_l	shoulder_elv_l	plane_of_elev_l	axial_rot_l	elbow_flexion_l	pro_sup_l	wrist_flex_l	wrist_dev_l
      4.09000000	    -39.15456600	     -8.29199928	     15.10121647	   -253.02098534	    847.75808237	      3.30012350	      6.23595881	    -45.00000000	     36.27812585	    -45.00000000	    -39.17734616	   2416.65624792	  -1906.69407997	    145.95448113	   -120.04048313	   1453.89957639	     35.91210404	     18.00417560	      2.07413008	     14.73003795	     37.33959355	    -36.61408026	    -45.00000000	    -45.00000000	     86.03315886	     73.41378013	     24.27156335	    -34.58980142	   2531.64652302	     20.85260203	      2.03739395	    -19.40049520
      4.10000000	    -39.09068229	     -8.61952509	     15.35958516	   -252.94501812	    847.43849453	      3.30797195	      6.50943567	    -45.00000000	     36.49598169	    -45.00000000	    -39.25978106	   2416.60815519	  -1906.74422787	    146.01111369	   -119.95334372	   1453.95755811	     35.93225084	     18.14807080	      2.35060603	     14.43604822	     37.12774415	    -36.43369946	    -45.00000000	    -45.00000000	     85.92162189	     73.48441489	     24.02647170	    -34.55742315	   2531.72430284	     20.88876993	      2.11925134	    -19.52514271
      4.11000000	    -39.11425206	     -8.45580178	     15.26574882	   -252.80421216	    847.12499168	      3.33072536	      6.53745286	    -45.00000000	     36.26647549	    -45.00000000	    -39.23105485	   2416.60006379	  -1906.87188069	    145.93812635	   -120.08242759	   1453.87860370	     35.76672943	     17.97667366	      2.07967018	     14.56321796	     37.28010288	    -36.40930241	    -45.00000000	    -45.00000000	     85.96101202	     73.39054425	     24.37723828	    -34.46013353	   2531.57804861	     20.86711158	      2.02721908	    -19.35815140
      4.12000000	    -39.04527039	     -8.60437522	     15.50221937	   -252.61257740	    846.82551519	      3.37006251	      6.46626497	    -45.00000000	     36.35714554	    -45.00000000	    -39.28165967	   2416.62568582	  -1906.82659901	    146.12305771	   -120.05335043	   1453.95859369	     35.54479650	     18.21039356	      2.44289100	     14.52212679	     37.17187971	    -36.48778359	    -45.00000000	    -45.00000000	     85.82056006	     73.44035292	     24.07765071	    -34.36637265	   2531.75881365	     20.84002722	      2.13552926	    -19.49943568
      4.13000000	    -39.08630236	     -8.45359998	     15.34262072	   -252.37911197	    846.54503833	      3.42578126	      6.53951311	    -45.00000000	     36.36772091	    -45.00000000	    -39.29516809	   2416.67237392	  -1906.96384352	    145.96345450	   -120.14045747	   1453.70022015	     35.20079348	     17.98575181	      2.16297333	     14.58084436	     37.22688743	    -36.39019902	    -45.00000000	    -45.00000000	     85.90888208	     73.34665462	     24.53192633	    -34.23101619	   2531.51109330	     20.77612869	      2.03088081	    -19.33070947
      4.14000000	    -39.05708324	     -8.53910706	     15.52605312	   -252.10677894	    846.28463074	      3.49641944	      6.48903532	    -45.00000000	     36.33180194	    -45.00000000	    -39.22619611	   2416.71336423	  -1906.87759812	    146.11396433	   -120.14234060	   1453.84806358	     34.77353988	     18.26949561	      2.53223682	     14.55031841	     37.22258528	    -36.48964910	    -45.00000000	    -45.00000000	     85.72545329	     73.46291091	     24.15399945	    -34.17762878	   2531.70065119	     20.71543648	      2.19791334	    -19.49756485
      4.15000000	    -39.05438402	     -8.59625145	     15.60672215	   -251.80893886	    846.05447368	      3.57619530	      6.49794165	    -45.00000000	     36.46799790	    -45.00000000	    -39.22151926	   2416.61239937	  -1906.95692824	    146.08303210	   -120.23154382	   1453.82432129	     34.30282421	     18.10244453	      2.22941510	     14.60783836	     37.15960552	    -36.53487101	    -45.00000000	    -45.00000000	     86.07244686	     73.20959263	     24.45322409	    -33.83285081	   2531.71733852	     20.56925755	      1.99579285	    -19.36700172
      4.16000000	    -39.08195893	     -8.49294942	     15.62202093	   -251.48105606	    845.84797954	      3.66298063	      6.52571605	    -45.00000000	     36.26487438	    -45.00000000	    -39.05148601	   2416.72174538	  -1906.89536535	    146.11543410	   -120.19944596	   1453.81628931	     33.83337867	     18.36225772	      2.59875289	     14.55958310	     37.27797893	    -36.52218229	    -45.00000000	    -45.00000000	     85.70945707	     73.51297648	     24.18518373	    -33.94622213	   2531.82902001	     20.50042349	      2.25151082	    -19.55578777
